# xmcd
#
# Track frame offsets:
#	150
#	14494
#	28206
#	46658
#	59347
#	74884
#	91570
#	108227
#	123256
#	137687
#	152641
#	169295
#	193077
#	210525
#	225403
#	238255
#
# Disc length: 3417
#
# Revision: 1
# Processed by: cddbd v1.5.1PL0 Copyright (c) Steve Scherf et al.
# Submitted via: VisiTrax 2.9.5.180 - For more info visit www.synapsa.com
# Normalized: r0:DSETVAR1
#
DISCID=da0d5710
DTITLE=Various Artist - CDX 249 September 2000
DYEAR=2000
DGENRE=
TTITLE0=Darl Worley - A good day to rum
TTITLE1=Montgomery Gentry/Charlie Daniels - All night long
TTITLE2=Lee Ann Womack - Ashes by now
TTITLE3=Great Divide - Days go
TTITLE4=Tamara Walker - Didn't we love
TTITLE5=Bran White - How long
TTITLE6=Kinleys - I'm in
TTITLE7=Mark Wills - I want to know (everything there is to know about you)
TTITLE8=Neal Coty - Legacy
TTITLE9=Warren Brothers - Move on
TTITLE10=Tim McGraw - My next thirty years
TTITLE11=Lee Roy Parnell - Nashville casualty and life
TTITLE12=Lonestar - Tell her
TTITLE13=Andy Griggs - you made me that way
TTITLE14=Michael Hardee - Runnnin' cross the sky
TTITLE15=Anderson's - Angel buddy
EXTD=
EXTT0=
EXTT1=
EXTT2=
EXTT3=
EXTT4=
EXTT5=
EXTT6=
EXTT7=
EXTT8=
EXTT9=
EXTT10=
EXTT11=
EXTT12=
EXTT13=
EXTT14=
EXTT15=
PLAYORDER=
